<svg width="18" height="19" viewBox="0 0 18 19" fill="none" xmlns="http://www.w3.org/2000/svg">
<g clip-path="url(#clip0)">
<path d="M8.22665 2.0326C8.38977 1.78792 8.32125 1.4571 8.07435 1.29735L6.97291 0.584658C6.73075 0.427967 6.40763 0.494904 6.24764 0.734881L4.88379 2.78062L7.01689 3.84716L8.22665 2.0326Z" fill="#FFCC00"/>
<path d="M10.1006 5.38909L11.0991 3.89133C11.2623 3.64664 11.1937 3.31582 10.9468 3.15607L9.8454 2.44338C9.60324 2.28669 9.28012 2.35362 9.12012 2.5936L7.96753 4.32252L10.1006 5.38909Z" fill="#FFCC00"/>
<path d="M10.34 8.04274L11.3057 8.47196C11.5405 8.57627 11.8162 8.49629 11.9587 8.28257L13.7449 5.60328C13.908 5.35859 13.8395 5.02777 13.5926 4.86802L12.7179 4.30204C12.4758 4.14534 12.1526 4.21228 11.9926 4.45226L10.1153 7.26828C9.93404 7.54028 10.0413 7.90999 10.34 8.04274Z" fill="#FFCC00"/>
<path d="M16.2385 6.58002L15.3639 6.01407C15.1217 5.85738 14.7986 5.92432 14.6386 6.16429L13.037 8.56674C12.8557 8.83871 12.9629 9.20841 13.2616 9.34116L14.2274 9.77038C14.4621 9.87469 14.7378 9.79475 14.8803 9.581L16.3908 7.31524C16.5539 7.07062 16.4854 6.7398 16.2385 6.58002Z" fill="#FFCC00"/>
<path d="M14.4412 10.8706C14.4411 10.8706 14.4412 10.8706 14.4411 10.8706C14.2185 10.8706 14.0024 10.8247 13.7988 10.7342L8.87075 8.54396H8.5375L10.7528 12.9745C10.8868 13.2426 10.7711 13.5702 10.4939 13.6929C10.2343 13.8078 9.9298 13.6869 9.80281 13.4329L7.35833 8.54396H5.10228C4.81832 8.54396 4.57399 8.32575 4.56063 8.04211C4.54636 7.73927 4.78767 7.48927 5.08737 7.48927H8.41822C8.59453 7.48927 8.7592 7.40114 8.857 7.25443L9.17963 6.77047C9.35559 6.50655 9.26039 6.14813 8.97668 6.00628L4.71046 3.87317C4.4726 3.75424 4.18337 3.83105 4.03585 4.05233L1.60933 7.69216C1.48593 7.87722 1.49195 8.11984 1.62434 8.29857L5.51111 13.5457C5.60498 13.6724 5.63722 13.8344 5.59897 13.9874L4.63463 17.8447C4.55142 18.1775 4.80317 18.5 5.14623 18.5H13.1217C13.413 18.5 13.6491 18.2639 13.6491 17.9726V15.158C13.6491 14.9819 13.7369 14.8176 13.8832 14.7197C13.8832 14.7197 14.0155 14.6312 14.2112 14.5007C15.0788 13.9223 15.5967 12.9546 15.5967 11.9119V10.3684C15.3002 10.6862 14.8842 10.8706 14.4412 10.8706Z" fill="#FFCC00"/>
</g>
<defs>
<clipPath id="clip0">
<rect width="18" height="18" fill="white" transform="translate(0 0.5)"/>
</clipPath>
</defs>
</svg>
